# MagicaVoxel @ Ephtracy

# group
o 

# material
mtllib bigScreen.mtl
usemtl palette

# normals
vn -1 0 0
vn 1 0 0
vn 0 0 1
vn 0 0 -1
vn 0 -1 0
vn 0 1 0

# texcoords
vt 0.978516 0.5
vt 0.994141 0.5

# verts
v 1 2.1 -5.1
v 1 2.1 -5.2
v 1 2.2 -5.1
v 1 2.2 -5.2
v 1.1 2.2 -5.1
v 1.1 2.2 -5.2
v 1.1 5.4 -5.1
v 1.1 5.4 -5.2
v 1.2 2.1 -5.2
v 1.2 2.1 -5.7
v 1.2 2.2 -5.2
v 1.2 2.2 -5.7
v 1.9 2.1 -5.1
v 1.9 2.1 -5.2
v 1.9 2.2 -5.1
v 1.9 2.2 -5.2
v 2.1 2.1 -5.2
v 2.1 2.1 -5.7
v 2.1 2.2 -5.2
v 2.1 2.2 -5.7
v 2.9 2.1 -5.1
v 2.9 2.1 -5.2
v 2.9 2.2 -5.1
v 2.9 2.2 -5.2
v 3.1 2.1 -5.2
v 3.1 2.1 -5.7
v 3.1 2.2 -5.2
v 3.1 2.2 -5.7
v 3.9 2.1 -5.1
v 3.9 2.1 -5.2
v 3.9 2.2 -5.1
v 3.9 2.2 -5.2
v 4.1 2.1 -5.2
v 4.1 2.1 -5.7
v 4.1 2.2 -5.2
v 4.1 2.2 -5.7
v 1.4 2.1 -5.2
v 1.4 2.1 -5.7
v 1.4 2.2 -5.2
v 1.4 2.2 -5.7
v 1.7 2.1 -5.1
v 1.7 2.1 -5.2
v 1.7 2.2 -5.1
v 1.7 2.2 -5.2
v 2.3 2.1 -5.2
v 2.3 2.1 -5.7
v 2.3 2.2 -5.2
v 2.3 2.2 -5.7
v 2.6 2.1 -5.1
v 2.6 2.1 -5.2
v 2.6 2.2 -5.1
v 2.6 2.2 -5.2
v 3.3 2.1 -5.2
v 3.3 2.1 -5.7
v 3.3 2.2 -5.2
v 3.3 2.2 -5.7
v 3.6 2.1 -5.1
v 3.6 2.1 -5.2
v 3.6 2.2 -5.1
v 3.6 2.2 -5.2
v 4.3 2.1 -5.2
v 4.3 2.1 -5.7
v 4.3 2.2 -5.2
v 4.3 2.2 -5.7
v 4.5 2.2 -5.1
v 4.5 2.2 -5.2
v 4.5 5.4 -5.1
v 4.5 5.4 -5.2
v 4.6 2.1 -5.1
v 4.6 2.1 -5.2
v 4.6 2.2 -5.1
v 4.6 2.2 -5.2
v 1 2.1 -5.1
v 1 2.2 -5.1
v 1.1 2.2 -5.1
v 1.1 5.4 -5.1
v 1.2 2.3 -5.1
v 1.2 5.3 -5.1
v 1.7 2.1 -5.1
v 1.7 2.2 -5.1
v 1.9 2.1 -5.1
v 1.9 2.2 -5.1
v 2.6 2.1 -5.1
v 2.6 2.2 -5.1
v 2.9 2.1 -5.1
v 2.9 2.2 -5.1
v 3.6 2.1 -5.1
v 3.6 2.2 -5.1
v 3.9 2.1 -5.1
v 3.9 2.2 -5.1
v 4.4 2.3 -5.1
v 4.4 5.3 -5.1
v 4.5 2.2 -5.1
v 4.5 5.4 -5.1
v 4.6 2.1 -5.1
v 4.6 2.2 -5.1
v 1 2.1 -5.2
v 1 2.2 -5.2
v 1.1 2.2 -5.2
v 1.1 5.4 -5.2
v 1.2 2.1 -5.2
v 1.2 2.2 -5.2
v 1.2 2.3 -5.2
v 1.2 5.3 -5.2
v 1.4 2.1 -5.2
v 1.4 2.2 -5.2
v 1.7 2.1 -5.2
v 1.7 2.2 -5.2
v 1.9 2.1 -5.2
v 1.9 2.2 -5.2
v 2.1 2.1 -5.2
v 2.1 2.2 -5.2
v 2.3 2.1 -5.2
v 2.3 2.2 -5.2
v 2.6 2.1 -5.2
v 2.6 2.2 -5.2
v 2.9 2.1 -5.2
v 2.9 2.2 -5.2
v 3.1 2.1 -5.2
v 3.1 2.2 -5.2
v 3.3 2.1 -5.2
v 3.3 2.2 -5.2
v 3.6 2.1 -5.2
v 3.6 2.2 -5.2
v 3.9 2.1 -5.2
v 3.9 2.2 -5.2
v 4.1 2.1 -5.2
v 4.1 2.2 -5.2
v 4.3 2.1 -5.2
v 4.3 2.2 -5.2
v 4.4 2.3 -5.2
v 4.4 5.3 -5.2
v 4.5 2.2 -5.2
v 4.5 5.4 -5.2
v 4.6 2.1 -5.2
v 4.6 2.2 -5.2
v 1.2 2.1 -5.7
v 1.2 2.2 -5.7
v 1.4 2.1 -5.7
v 1.4 2.2 -5.7
v 2.1 2.1 -5.7
v 2.1 2.2 -5.7
v 2.3 2.1 -5.7
v 2.3 2.2 -5.7
v 3.1 2.1 -5.7
v 3.1 2.2 -5.7
v 3.3 2.1 -5.7
v 3.3 2.2 -5.7
v 4.1 2.1 -5.7
v 4.1 2.2 -5.7
v 4.3 2.1 -5.7
v 4.3 2.2 -5.7
v 1 2.1 -5.1
v 1.7 2.1 -5.1
v 1.9 2.1 -5.1
v 2.6 2.1 -5.1
v 2.9 2.1 -5.1
v 3.6 2.1 -5.1
v 3.9 2.1 -5.1
v 4.6 2.1 -5.1
v 1 2.1 -5.2
v 1.2 2.1 -5.2
v 1.4 2.1 -5.2
v 1.7 2.1 -5.2
v 1.9 2.1 -5.2
v 2.1 2.1 -5.2
v 2.3 2.1 -5.2
v 2.6 2.1 -5.2
v 2.9 2.1 -5.2
v 3.1 2.1 -5.2
v 3.3 2.1 -5.2
v 3.6 2.1 -5.2
v 3.9 2.1 -5.2
v 4.1 2.1 -5.2
v 4.3 2.1 -5.2
v 4.6 2.1 -5.2
v 1.2 2.1 -5.7
v 1.4 2.1 -5.7
v 2.1 2.1 -5.7
v 2.3 2.1 -5.7
v 3.1 2.1 -5.7
v 3.3 2.1 -5.7
v 4.1 2.1 -5.7
v 4.3 2.1 -5.7
v 1.7 2.2 -5.1
v 1.9 2.2 -5.1
v 2.6 2.2 -5.1
v 2.9 2.2 -5.1
v 3.6 2.2 -5.1
v 3.9 2.2 -5.1
v 1.7 2.2 -5.2
v 1.9 2.2 -5.2
v 2.6 2.2 -5.2
v 2.9 2.2 -5.2
v 3.6 2.2 -5.2
v 3.9 2.2 -5.2
v 1 2.2 -5.1
v 1.1 2.2 -5.1
v 4.5 2.2 -5.1
v 4.6 2.2 -5.1
v 1 2.2 -5.2
v 1.1 2.2 -5.2
v 1.2 2.2 -5.2
v 1.4 2.2 -5.2
v 2.1 2.2 -5.2
v 2.3 2.2 -5.2
v 3.1 2.2 -5.2
v 3.3 2.2 -5.2
v 4.1 2.2 -5.2
v 4.3 2.2 -5.2
v 4.5 2.2 -5.2
v 4.6 2.2 -5.2
v 1.2 2.2 -5.7
v 1.4 2.2 -5.7
v 2.1 2.2 -5.7
v 2.3 2.2 -5.7
v 3.1 2.2 -5.7
v 3.3 2.2 -5.7
v 4.1 2.2 -5.7
v 4.3 2.2 -5.7
v 1.1 5.4 -5.1
v 4.5 5.4 -5.1
v 1.1 5.4 -5.2
v 4.5 5.4 -5.2

# faces
f 3/2/1 2/2/1 1/2/1
f 4/2/1 2/2/1 3/2/1
f 7/2/1 6/2/1 5/2/1
f 8/2/1 6/2/1 7/2/1
f 11/2/1 10/2/1 9/2/1
f 12/2/1 10/2/1 11/2/1
f 15/2/1 14/2/1 13/2/1
f 16/2/1 14/2/1 15/2/1
f 19/2/1 18/2/1 17/2/1
f 20/2/1 18/2/1 19/2/1
f 23/2/1 22/2/1 21/2/1
f 24/2/1 22/2/1 23/2/1
f 27/2/1 26/2/1 25/2/1
f 28/2/1 26/2/1 27/2/1
f 31/2/1 30/2/1 29/2/1
f 32/2/1 30/2/1 31/2/1
f 35/2/1 34/2/1 33/2/1
f 36/2/1 34/2/1 35/2/1
f 37/2/2 38/2/2 39/2/2
f 39/2/2 38/2/2 40/2/2
f 41/2/2 42/2/2 43/2/2
f 43/2/2 42/2/2 44/2/2
f 45/2/2 46/2/2 47/2/2
f 47/2/2 46/2/2 48/2/2
f 49/2/2 50/2/2 51/2/2
f 51/2/2 50/2/2 52/2/2
f 53/2/2 54/2/2 55/2/2
f 55/2/2 54/2/2 56/2/2
f 57/2/2 58/2/2 59/2/2
f 59/2/2 58/2/2 60/2/2
f 61/2/2 62/2/2 63/2/2
f 63/2/2 62/2/2 64/2/2
f 65/2/2 66/2/2 67/2/2
f 67/2/2 66/2/2 68/2/2
f 69/2/2 70/2/2 71/2/2
f 71/2/2 70/2/2 72/2/2
f 75/2/3 74/2/3 73/2/3
f 77/2/3 76/2/3 75/2/3
f 78/2/3 76/2/3 77/2/3
f 79/2/3 75/2/3 73/2/3
f 79/2/3 77/2/3 75/2/3
f 80/2/3 77/2/3 79/2/3
f 82/2/3 77/2/3 80/2/3
f 83/2/3 82/2/3 81/2/3
f 84/2/3 77/2/3 82/2/3
f 84/2/3 82/2/3 83/2/3
f 86/2/3 77/2/3 84/2/3
f 87/2/3 86/2/3 85/2/3
f 88/2/3 77/2/3 86/2/3
f 88/2/3 86/2/3 87/2/3
f 90/2/3 77/2/3 88/2/3
f 91/1/3 78/1/3 77/1/3
f 91/2/3 90/2/3 89/2/3
f 91/2/3 77/2/3 90/2/3
f 92/2/3 76/2/3 78/2/3
f 92/1/3 78/1/3 91/1/3
f 93/2/3 91/2/3 89/2/3
f 93/2/3 92/2/3 91/2/3
f 94/2/3 76/2/3 92/2/3
f 94/2/3 92/2/3 93/2/3
f 95/2/3 93/2/3 89/2/3
f 96/2/3 93/2/3 95/2/3
f 97/2/4 98/2/4 99/2/4
f 97/2/4 99/2/4 101/2/4
f 99/2/4 100/2/4 101/2/4
f 101/2/4 100/2/4 102/2/4
f 102/2/4 100/2/4 103/2/4
f 103/2/4 100/2/4 104/2/4
f 102/2/4 103/2/4 106/2/4
f 105/2/4 106/2/4 107/2/4
f 106/2/4 103/2/4 108/2/4
f 107/2/4 106/2/4 108/2/4
f 108/2/4 103/2/4 110/2/4
f 109/2/4 110/2/4 111/2/4
f 110/2/4 103/2/4 112/2/4
f 111/2/4 110/2/4 112/2/4
f 112/2/4 103/2/4 114/2/4
f 113/2/4 114/2/4 115/2/4
f 114/2/4 103/2/4 116/2/4
f 115/2/4 114/2/4 116/2/4
f 116/2/4 103/2/4 118/2/4
f 117/2/4 118/2/4 119/2/4
f 118/2/4 103/2/4 120/2/4
f 119/2/4 118/2/4 120/2/4
f 120/2/4 103/2/4 122/2/4
f 121/2/4 122/2/4 123/2/4
f 122/2/4 103/2/4 124/2/4
f 123/2/4 122/2/4 124/2/4
f 124/2/4 103/2/4 126/2/4
f 125/2/4 126/2/4 127/2/4
f 126/2/4 103/2/4 128/2/4
f 127/2/4 126/2/4 128/2/4
f 128/2/4 103/2/4 130/2/4
f 103/1/4 104/1/4 131/1/4
f 129/2/4 130/2/4 131/2/4
f 130/2/4 103/2/4 131/2/4
f 104/2/4 100/2/4 132/2/4
f 131/1/4 104/1/4 132/1/4
f 129/2/4 131/2/4 133/2/4
f 131/2/4 132/2/4 133/2/4
f 132/2/4 100/2/4 134/2/4
f 133/2/4 132/2/4 134/2/4
f 129/2/4 133/2/4 135/2/4
f 135/2/4 133/2/4 136/2/4
f 137/2/4 138/2/4 139/2/4
f 139/2/4 138/2/4 140/2/4
f 141/2/4 142/2/4 143/2/4
f 143/2/4 142/2/4 144/2/4
f 145/2/4 146/2/4 147/2/4
f 147/2/4 146/2/4 148/2/4
f 149/2/4 150/2/4 151/2/4
f 151/2/4 150/2/4 152/2/4
f 161/2/5 154/2/5 153/2/5
f 162/2/5 154/2/5 161/2/5
f 163/2/5 154/2/5 162/2/5
f 164/2/5 154/2/5 163/2/5
f 165/2/5 156/2/5 155/2/5
f 166/2/5 156/2/5 165/2/5
f 167/2/5 156/2/5 166/2/5
f 168/2/5 156/2/5 167/2/5
f 169/2/5 158/2/5 157/2/5
f 170/2/5 158/2/5 169/2/5
f 171/2/5 158/2/5 170/2/5
f 172/2/5 158/2/5 171/2/5
f 173/2/5 160/2/5 159/2/5
f 174/2/5 160/2/5 173/2/5
f 175/2/5 160/2/5 174/2/5
f 176/2/5 160/2/5 175/2/5
f 177/2/5 163/2/5 162/2/5
f 178/2/5 163/2/5 177/2/5
f 179/2/5 167/2/5 166/2/5
f 180/2/5 167/2/5 179/2/5
f 181/2/5 171/2/5 170/2/5
f 182/2/5 171/2/5 181/2/5
f 183/2/5 175/2/5 174/2/5
f 184/2/5 175/2/5 183/2/5
f 191/2/5 186/2/5 185/2/5
f 192/2/5 186/2/5 191/2/5
f 193/2/5 188/2/5 187/2/5
f 194/2/5 188/2/5 193/2/5
f 195/2/5 190/2/5 189/2/5
f 196/2/5 190/2/5 195/2/5
f 197/2/6 198/2/6 201/2/6
f 201/2/6 198/2/6 202/2/6
f 199/2/6 200/2/6 211/2/6
f 211/2/6 200/2/6 212/2/6
f 203/2/6 204/2/6 213/2/6
f 213/2/6 204/2/6 214/2/6
f 205/2/6 206/2/6 215/2/6
f 215/2/6 206/2/6 216/2/6
f 207/2/6 208/2/6 217/2/6
f 217/2/6 208/2/6 218/2/6
f 209/2/6 210/2/6 219/2/6
f 219/2/6 210/2/6 220/2/6
f 221/2/6 222/2/6 223/2/6
f 223/2/6 222/2/6 224/2/6
