# MagicaVoxel @ Ephtracy

# group
o 

# material
mtllib ta1Body.mtl
usemtl palette

# normals
vn -1 0 0
vn 1 0 0
vn 0 0 1
vn 0 0 -1
vn 0 -1 0
vn 0 1 0

# texcoords
vt 0.0332031 0.5
vt 0.232422 0.5
vt 0.841797 0.5
vt 0.919922 0.5
vt 0.958984 0.5
vt 0.978516 0.5
vt 0.994141 0.5

# verts
v 1.9 4.1 -1.7
v 1.9 4.1 -2.1
v 1.9 4.4 -1.7
v 1.9 4.4 -2.1
v 2 4 -1.6
v 2 4 -2.2
v 2 4.1 -1.7
v 2 4.1 -2.1
v 2 4.4 -1.6
v 2 4.4 -1.7
v 2 4.4 -2.1
v 2 4.4 -2.2
v 2 4.7 -1.3
v 2 4.7 -2.5
v 2 5.4 -1.2
v 2 5.4 -1.3
v 2 5.5 -1.2
v 2 5.5 -1.3
v 2 5.5 -2.5
v 2 5.5 -2.6
v 2 5.6 -2.5
v 2 5.6 -2.6
v 2 5.8 -1.3
v 2 5.8 -2.4
v 2 5.8 -2.5
v 2 5.9 -1.3
v 2 5.9 -2.4
v 2.1 3.9 -1.5
v 2.1 3.9 -2.3
v 2.1 4 -1.6
v 2.1 4 -2.2
v 2.1 4.4 -1.6
v 2.1 4.4 -2.2
v 2.1 4.5 -1.5
v 2.1 4.5 -1.6
v 2.1 4.5 -2.2
v 2.1 4.5 -2.3
v 2.1 4.6 -1.4
v 2.1 4.6 -2.4
v 2.1 4.7 -1.4
v 2.1 4.7 -2.4
v 2.1 5.8 -2.4
v 2.1 5.8 -2.5
v 2.1 5.9 -2.4
v 2.1 5.9 -2.5
v 2.2 3.3 -1.5
v 2.2 3.3 -2.3
v 2.2 3.9 -1.5
v 2.2 3.9 -2.3
v 2.2 4.3 -1.7
v 2.2 4.3 -2.1
v 2.2 4.4 -1.6
v 2.2 4.4 -1.7
v 2.2 4.4 -2.1
v 2.2 4.4 -2.2
v 2.2 4.5 -1.5
v 2.2 4.5 -1.6
v 2.2 4.5 -2.2
v 2.2 4.5 -2.3
v 2.2 4.6 -1.5
v 2.2 4.6 -2.3
v 2.3 5.2 -1.2
v 2.3 5.2 -1.3
v 2.3 5.3 -2.5
v 2.3 5.3 -2.6
v 2.3 5.4 -1.2
v 2.3 5.4 -1.3
v 2.3 5.5 -2.5
v 2.3 5.5 -2.6
v 2.7 5.5 -1.2
v 2.7 5.5 -1.3
v 2.7 5.6 -1.2
v 2.7 5.6 -1.3
v 2.7 5.9 -1.3
v 2.7 5.9 -2.5
v 2.7 6 -1.3
v 2.7 6 -2.5
v 2.1 4.3 -1.7
v 2.1 4.3 -2.1
v 2.1 4.4 -1.7
v 2.1 4.4 -2.1
v 2.4 5.2 -1.2
v 2.4 5.2 -1.3
v 2.4 5.3 -2.5
v 2.4 5.3 -2.6
v 2.4 5.4 -1.2
v 2.4 5.4 -1.3
v 2.4 5.5 -2.5
v 2.4 5.5 -2.6
v 2.6 3.3 -1.5
v 2.6 3.3 -2.3
v 2.6 3.9 -1.6
v 2.6 3.9 -1.9
v 2.6 3.9 -2
v 2.6 3.9 -2.2
v 2.6 4 -1.7
v 2.6 4 -1.8
v 2.6 4 -2.1
v 2.6 4 -2.2
v 2.6 4.1 -2.1
v 2.6 4.1 -2.2
v 2.6 4.2 -1.6
v 2.6 4.2 -1.7
v 2.6 4.2 -1.8
v 2.6 4.2 -1.9
v 2.6 4.2 -2
v 2.6 4.2 -2.2
v 2.6 4.3 -1.8
v 2.6 4.3 -2
v 2.6 4.6 -1.4
v 2.6 4.6 -1.5
v 2.6 4.6 -1.8
v 2.6 4.6 -2
v 2.6 4.6 -2.3
v 2.6 4.6 -2.4
v 2.6 4.7 -1.4
v 2.6 4.7 -1.8
v 2.6 4.7 -2
v 2.6 4.7 -2.4
v 2.7 4.6 -1.8
v 2.7 4.6 -2
v 2.7 4.7 -1.3
v 2.7 4.7 -1.8
v 2.7 4.7 -2
v 2.7 4.7 -2.5
v 2.7 4.9 -1.7
v 2.7 4.9 -2.1
v 2.7 5 -1.7
v 2.7 5 -2.1
v 2.7 5.2 -1.3
v 2.7 5.2 -1.8
v 2.7 5.2 -2
v 2.7 5.2 -2.5
v 2.7 5.3 -1.4
v 2.7 5.3 -1.7
v 2.7 5.3 -2.1
v 2.7 5.3 -2.4
v 2.7 5.4 -1.2
v 2.7 5.4 -1.3
v 2.7 5.4 -1.5
v 2.7 5.4 -1.6
v 2.7 5.4 -2.2
v 2.7 5.4 -2.3
v 2.7 5.5 -1.2
v 2.7 5.5 -1.3
v 2.7 5.5 -1.4
v 2.7 5.5 -1.5
v 2.7 5.5 -1.6
v 2.7 5.5 -1.7
v 2.7 5.5 -1.8
v 2.7 5.5 -2
v 2.7 5.5 -2.1
v 2.7 5.5 -2.2
v 2.7 5.5 -2.3
v 2.7 5.5 -2.4
v 2.7 5.6 -1.3
v 2.7 5.6 -2.5
v 2.7 5.7 -1.3
v 2.7 5.7 -1.7
v 2.7 5.8 -1.7
v 2.7 5.8 -2.5
v 2.8 4.9 -1.7
v 2.8 4.9 -2.1
v 2.8 5 -1.7
v 2.8 5 -2.1
v 2.8 5.2 -1.3
v 2.8 5.2 -1.8
v 2.8 5.2 -2
v 2.8 5.2 -2.5
v 2.8 5.3 -1.4
v 2.8 5.3 -1.7
v 2.8 5.3 -2.1
v 2.8 5.3 -2.4
v 2.8 5.4 -1.5
v 2.8 5.4 -1.6
v 2.8 5.4 -2.2
v 2.8 5.4 -2.3
v 2.8 5.5 -1.2
v 2.8 5.5 -1.3
v 2.8 5.5 -1.4
v 2.8 5.5 -1.5
v 2.8 5.5 -1.6
v 2.8 5.5 -1.7
v 2.8 5.5 -1.8
v 2.8 5.5 -2
v 2.8 5.5 -2.1
v 2.8 5.5 -2.2
v 2.8 5.5 -2.3
v 2.8 5.5 -2.4
v 2.8 5.5 -2.5
v 2.8 5.5 -2.6
v 2.8 5.6 -1.2
v 2.8 5.6 -2.6
v 2.8 5.7 -1.3
v 2.8 5.7 -1.7
v 2.8 5.8 -1.7
v 2.8 5.8 -2.5
v 2.8 6 -1.3
v 2.8 6 -2.5
v 2 5.4 -1.2
v 2 5.5 -1.2
v 2.3 5.2 -1.2
v 2.3 5.4 -1.2
v 2.4 5.2 -1.2
v 2.4 5.4 -1.2
v 2.7 5.4 -1.2
v 2.7 5.5 -1.2
v 2.7 5.6 -1.2
v 2.8 5.5 -1.2
v 2.8 5.6 -1.2
v 2 4.7 -1.3
v 2 5.4 -1.3
v 2 5.5 -1.3
v 2 5.8 -1.3
v 2 5.9 -1.3
v 2.3 5.2 -1.3
v 2.3 5.4 -1.3
v 2.4 5.2 -1.3
v 2.4 5.4 -1.3
v 2.7 4.7 -1.3
v 2.7 5.2 -1.3
v 2.7 5.4 -1.3
v 2.7 5.5 -1.3
v 2.7 5.6 -1.3
v 2.7 5.7 -1.3
v 2.7 5.8 -1.3
v 2.7 5.9 -1.3
v 2.7 6 -1.3
v 2.8 5.2 -1.3
v 2.8 5.5 -1.3
v 2.8 5.7 -1.3
v 2.8 6 -1.3
v 2.1 4.6 -1.4
v 2.1 4.7 -1.4
v 2.6 4.6 -1.4
v 2.6 4.7 -1.4
v 2.1 3.9 -1.5
v 2.1 4.5 -1.5
v 2.2 3.3 -1.5
v 2.2 3.9 -1.5
v 2.2 4.5 -1.5
v 2.2 4.6 -1.5
v 2.6 3.3 -1.5
v 2.6 4.6 -1.5
v 2.7 5.4 -1.5
v 2.7 5.5 -1.5
v 2.8 5.4 -1.5
v 2.8 5.5 -1.5
v 2 4 -1.6
v 2 4.4 -1.6
v 2.1 4 -1.6
v 2.1 4.4 -1.6
v 1.9 4.1 -1.7
v 1.9 4.4 -1.7
v 2 4.1 -1.7
v 2 4.4 -1.7
v 2.7 4.9 -1.7
v 2.7 5 -1.7
v 2.7 5.3 -1.7
v 2.7 5.5 -1.7
v 2.8 4.9 -1.7
v 2.8 5 -1.7
v 2.8 5.3 -1.7
v 2.8 5.5 -1.7
v 2.6 4.6 -1.8
v 2.6 4.7 -1.8
v 2.7 4.6 -1.8
v 2.7 4.7 -1.8
v 2.7 5.2 -2
v 2.7 5.5 -2
v 2.8 5.2 -2
v 2.8 5.5 -2
v 2.1 4.3 -2.1
v 2.1 4.4 -2.1
v 2.2 4.3 -2.1
v 2.2 4.4 -2.1
v 2.1 4.4 -2.2
v 2.1 4.5 -2.2
v 2.2 4.4 -2.2
v 2.2 4.5 -2.2
v 2.7 5.4 -2.2
v 2.7 5.5 -2.2
v 2.8 5.4 -2.2
v 2.8 5.5 -2.2
v 2.7 5.3 -2.4
v 2.7 5.5 -2.4
v 2.8 5.3 -2.4
v 2.8 5.5 -2.4
v 2.7 5.3 -1.4
v 2.7 5.5 -1.4
v 2.8 5.3 -1.4
v 2.8 5.5 -1.4
v 2.1 4.4 -1.6
v 2.1 4.5 -1.6
v 2.2 4.4 -1.6
v 2.2 4.5 -1.6
v 2.7 5.4 -1.6
v 2.7 5.5 -1.6
v 2.8 5.4 -1.6
v 2.8 5.5 -1.6
v 2.1 4.3 -1.7
v 2.1 4.4 -1.7
v 2.2 4.3 -1.7
v 2.2 4.4 -1.7
v 2.7 5.7 -1.7
v 2.7 5.8 -1.7
v 2.8 5.7 -1.7
v 2.8 5.8 -1.7
v 2.7 5.2 -1.8
v 2.7 5.5 -1.8
v 2.8 5.2 -1.8
v 2.8 5.5 -1.8
v 2.6 4.6 -2
v 2.6 4.7 -2
v 2.7 4.6 -2
v 2.7 4.7 -2
v 1.9 4.1 -2.1
v 1.9 4.4 -2.1
v 2 4.1 -2.1
v 2 4.4 -2.1
v 2.7 4.9 -2.1
v 2.7 5 -2.1
v 2.7 5.3 -2.1
v 2.7 5.5 -2.1
v 2.8 4.9 -2.1
v 2.8 5 -2.1
v 2.8 5.3 -2.1
v 2.8 5.5 -2.1
v 2 4 -2.2
v 2 4.4 -2.2
v 2.1 4 -2.2
v 2.1 4.4 -2.2
v 2.1 3.9 -2.3
v 2.1 4.5 -2.3
v 2.2 3.3 -2.3
v 2.2 3.9 -2.3
v 2.2 4.5 -2.3
v 2.2 4.6 -2.3
v 2.6 3.3 -2.3
v 2.6 4.6 -2.3
v 2.7 5.4 -2.3
v 2.7 5.5 -2.3
v 2.8 5.4 -2.3
v 2.8 5.5 -2.3
v 2 5.8 -2.4
v 2 5.9 -2.4
v 2.1 4.6 -2.4
v 2.1 4.7 -2.4
v 2.1 5.8 -2.4
v 2.1 5.9 -2.4
v 2.6 4.6 -2.4
v 2.6 4.7 -2.4
v 2 4.7 -2.5
v 2 5.5 -2.5
v 2 5.6 -2.5
v 2 5.8 -2.5
v 2.1 5.8 -2.5
v 2.1 5.9 -2.5
v 2.3 5.3 -2.5
v 2.3 5.5 -2.5
v 2.4 5.3 -2.5
v 2.4 5.5 -2.5
v 2.7 4.7 -2.5
v 2.7 5.2 -2.5
v 2.7 5.5 -2.5
v 2.7 5.6 -2.5
v 2.7 5.8 -2.5
v 2.7 5.9 -2.5
v 2.7 6 -2.5
v 2.8 5.2 -2.5
v 2.8 5.5 -2.5
v 2.8 5.8 -2.5
v 2.8 6 -2.5
v 2 5.5 -2.6
v 2 5.6 -2.6
v 2.3 5.3 -2.6
v 2.3 5.5 -2.6
v 2.4 5.3 -2.6
v 2.4 5.5 -2.6
v 2.8 5.5 -2.6
v 2.8 5.6 -2.6
v 2.2 3.3 -1.5
v 2.6 3.3 -1.5
v 2.2 3.3 -2.3
v 2.6 3.3 -2.3
v 2.1 3.9 -1.5
v 2.2 3.9 -1.5
v 2.1 3.9 -2.3
v 2.2 3.9 -2.3
v 2 4 -1.6
v 2.1 4 -1.6
v 2 4 -2.2
v 2.1 4 -2.2
v 1.9 4.1 -1.7
v 2 4.1 -1.7
v 1.9 4.1 -2.1
v 2 4.1 -2.1
v 2.1 4.6 -1.4
v 2.6 4.6 -1.4
v 2.2 4.6 -1.5
v 2.6 4.6 -1.5
v 2.6 4.6 -1.8
v 2.7 4.6 -1.8
v 2.6 4.6 -2
v 2.7 4.6 -2
v 2.2 4.6 -2.3
v 2.6 4.6 -2.3
v 2.1 4.6 -2.4
v 2.6 4.6 -2.4
v 2 4.7 -1.3
v 2.7 4.7 -1.3
v 2.1 4.7 -1.4
v 2.6 4.7 -1.4
v 2.6 4.7 -1.8
v 2.7 4.7 -1.8
v 2.6 4.7 -2
v 2.7 4.7 -2
v 2.1 4.7 -2.4
v 2.6 4.7 -2.4
v 2 4.7 -2.5
v 2.7 4.7 -2.5
v 2.7 4.9 -1.7
v 2.8 4.9 -1.7
v 2.7 4.9 -2.1
v 2.8 4.9 -2.1
v 2.3 5.2 -1.2
v 2.4 5.2 -1.2
v 2.3 5.2 -1.3
v 2.4 5.2 -1.3
v 2.7 5.2 -1.3
v 2.8 5.2 -1.3
v 2.7 5.2 -1.8
v 2.8 5.2 -1.8
v 2.7 5.2 -2
v 2.8 5.2 -2
v 2.7 5.2 -2.5
v 2.8 5.2 -2.5
v 2.3 5.3 -2.5
v 2.4 5.3 -2.5
v 2.3 5.3 -2.6
v 2.4 5.3 -2.6
v 2 5.4 -1.2
v 2.3 5.4 -1.2
v 2.4 5.4 -1.2
v 2.7 5.4 -1.2
v 2 5.4 -1.3
v 2.3 5.4 -1.3
v 2.4 5.4 -1.3
v 2.7 5.4 -1.3
v 2.7 5.4 -1.5
v 2.8 5.4 -1.5
v 2.7 5.4 -1.6
v 2.8 5.4 -1.6
v 2.7 5.4 -2.2
v 2.8 5.4 -2.2
v 2.7 5.4 -2.3
v 2.8 5.4 -2.3
v 2.7 5.5 -1.2
v 2.8 5.5 -1.2
v 2.7 5.5 -1.3
v 2.8 5.5 -1.3
v 2.7 5.5 -1.4
v 2.8 5.5 -1.4
v 2.7 5.5 -1.5
v 2.8 5.5 -1.5
v 2.7 5.5 -1.6
v 2.8 5.5 -1.6
v 2.7 5.5 -1.7
v 2.8 5.5 -1.7
v 2.7 5.5 -1.8
v 2.8 5.5 -1.8
v 2.7 5.5 -2
v 2.8 5.5 -2
v 2.7 5.5 -2.1
v 2.8 5.5 -2.1
v 2.7 5.5 -2.2
v 2.8 5.5 -2.2
v 2.7 5.5 -2.3
v 2.8 5.5 -2.3
v 2.7 5.5 -2.4
v 2.8 5.5 -2.4
v 2 5.5 -2.5
v 2.3 5.5 -2.5
v 2.4 5.5 -2.5
v 2.7 5.5 -2.5
v 2.8 5.5 -2.5
v 2 5.5 -2.6
v 2.3 5.5 -2.6
v 2.4 5.5 -2.6
v 2.8 5.5 -2.6
v 2.7 5.7 -1.3
v 2.8 5.7 -1.3
v 2.7 5.7 -1.7
v 2.8 5.7 -1.7
v 2.7 5.8 -1.7
v 2.8 5.8 -1.7
v 2.7 5.8 -2.5
v 2.8 5.8 -2.5
v 2.1 4.3 -1.7
v 2.2 4.3 -1.7
v 2.1 4.3 -2.1
v 2.2 4.3 -2.1
v 2 4.4 -1.6
v 2.1 4.4 -1.6
v 2.2 4.4 -1.6
v 1.9 4.4 -1.7
v 2 4.4 -1.7
v 2.1 4.4 -1.7
v 2.2 4.4 -1.7
v 1.9 4.4 -2.1
v 2 4.4 -2.1
v 2.1 4.4 -2.1
v 2.2 4.4 -2.1
v 2 4.4 -2.2
v 2.1 4.4 -2.2
v 2.2 4.4 -2.2
v 2.1 4.5 -1.5
v 2.2 4.5 -1.5
v 2.1 4.5 -1.6
v 2.2 4.5 -1.6
v 2.1 4.5 -2.2
v 2.2 4.5 -2.2
v 2.1 4.5 -2.3
v 2.2 4.5 -2.3
v 2.7 5 -1.7
v 2.8 5 -1.7
v 2.7 5 -2.1
v 2.8 5 -2.1
v 2.7 5.3 -1.4
v 2.8 5.3 -1.4
v 2.7 5.3 -1.7
v 2.8 5.3 -1.7
v 2.7 5.3 -2.1
v 2.8 5.3 -2.1
v 2.7 5.3 -2.4
v 2.8 5.3 -2.4
v 2 5.5 -1.2
v 2.7 5.5 -1.2
v 2 5.5 -1.3
v 2.7 5.5 -1.3
v 2.7 5.6 -1.2
v 2.8 5.6 -1.2
v 2.7 5.6 -1.3
v 2 5.6 -2.5
v 2.7 5.6 -2.5
v 2 5.6 -2.6
v 2.8 5.6 -2.6
v 2 5.8 -2.4
v 2.1 5.8 -2.4
v 2 5.8 -2.5
v 2.1 5.8 -2.5
v 2 5.9 -1.3
v 2.7 5.9 -1.3
v 2 5.9 -2.4
v 2.1 5.9 -2.4
v 2.1 5.9 -2.5
v 2.7 5.9 -2.5
v 2.7 6 -1.3
v 2.8 6 -1.3
v 2.7 6 -2.5
v 2.8 6 -2.5

# faces
f 3/2/1 2/2/1 1/2/1
f 4/2/1 2/2/1 3/2/1
f 7/2/1 6/2/1 5/2/1
f 8/2/1 6/2/1 7/2/1
f 9/2/1 7/2/1 5/2/1
f 10/2/1 7/2/1 9/2/1
f 11/2/1 6/2/1 8/2/1
f 12/2/1 6/2/1 11/2/1
f 16/1/1 14/1/1 13/1/1
f 17/7/1 16/7/1 15/7/1
f 18/1/1 14/1/1 16/1/1
f 18/7/1 16/7/1 17/7/1
f 19/1/1 14/1/1 18/1/1
f 21/7/1 20/7/1 19/7/1
f 21/1/1 19/1/1 18/1/1
f 22/7/1 20/7/1 21/7/1
f 23/1/1 21/1/1 18/1/1
f 24/1/1 21/1/1 23/1/1
f 25/1/1 21/1/1 24/1/1
f 26/7/1 24/7/1 23/7/1
f 27/7/1 24/7/1 26/7/1
f 30/2/1 29/2/1 28/2/1
f 31/2/1 29/2/1 30/2/1
f 32/2/1 30/2/1 28/2/1
f 33/2/1 29/2/1 31/2/1
f 34/2/1 32/2/1 28/2/1
f 35/2/1 32/2/1 34/2/1
f 36/2/1 29/2/1 33/2/1
f 37/2/1 29/2/1 36/2/1
f 40/2/1 39/2/1 38/2/1
f 41/2/1 39/2/1 40/2/1
f 44/7/1 43/7/1 42/7/1
f 45/7/1 43/7/1 44/7/1
f 48/2/1 47/2/1 46/2/1
f 49/2/1 47/2/1 48/2/1
f 53/2/1 51/2/1 50/2/1
f 54/2/1 51/2/1 53/2/1
f 57/2/1 53/2/1 52/2/1
f 57/2/1 55/2/1 54/2/1
f 57/2/1 54/2/1 53/2/1
f 58/2/1 55/2/1 57/2/1
f 60/2/1 57/2/1 56/2/1
f 60/2/1 59/2/1 58/2/1
f 60/2/1 58/2/1 57/2/1
f 61/2/1 59/2/1 60/2/1
f 66/1/1 63/1/1 62/1/1
f 67/1/1 63/1/1 66/1/1
f 68/1/1 65/1/1 64/1/1
f 69/1/1 65/1/1 68/1/1
f 72/7/1 71/7/1 70/7/1
f 73/7/1 71/7/1 72/7/1
f 76/7/1 75/7/1 74/7/1
f 77/7/1 75/7/1 76/7/1
f 78/2/2 79/2/2 80/2/2
f 80/2/2 79/2/2 81/2/2
f 82/1/2 83/1/2 86/1/2
f 86/1/2 83/1/2 87/1/2
f 84/1/2 85/1/2 88/1/2
f 88/1/2 85/1/2 89/1/2
f 90/2/2 91/2/2 92/2/2
f 92/2/2 91/2/2 93/2/2
f 93/2/2 91/2/2 94/2/2
f 94/2/2 91/2/2 95/2/2
f 92/4/2 93/4/2 96/4/2
f 96/4/2 93/4/2 97/4/2
f 94/4/2 95/4/2 98/4/2
f 95/2/2 91/2/2 99/2/2
f 98/4/2 95/4/2 99/4/2
f 94/4/2 98/4/2 100/4/2
f 98/2/2 99/2/2 100/2/2
f 99/2/2 91/2/2 101/2/2
f 100/2/2 99/2/2 101/2/2
f 90/2/2 92/2/2 102/2/2
f 92/4/2 96/4/2 102/4/2
f 96/2/2 97/2/2 103/2/2
f 102/4/2 96/4/2 103/4/2
f 97/4/2 93/4/2 104/4/2
f 103/2/2 97/2/2 104/2/2
f 93/2/2 94/2/2 105/2/2
f 104/4/2 93/4/2 105/4/2
f 94/4/2 100/4/2 106/4/2
f 105/2/2 94/2/2 106/2/2
f 100/4/2 101/4/2 106/4/2
f 101/2/2 91/2/2 107/2/2
f 106/4/2 101/4/2 107/4/2
f 105/2/2 106/2/2 108/2/2
f 104/2/2 105/2/2 108/2/2
f 106/2/2 107/2/2 108/2/2
f 103/2/2 104/2/2 108/2/2
f 102/2/2 103/2/2 108/2/2
f 108/2/2 107/2/2 109/2/2
f 90/2/2 102/2/2 111/2/2
f 102/2/2 108/2/2 111/2/2
f 108/6/2 109/6/2 112/6/2
f 111/2/2 108/2/2 112/2/2
f 109/2/2 107/2/2 113/2/2
f 112/6/2 109/6/2 113/6/2
f 107/2/2 91/2/2 114/2/2
f 113/2/2 107/2/2 114/2/2
f 111/2/2 112/2/2 116/2/2
f 110/2/2 111/2/2 116/2/2
f 116/2/2 112/2/2 117/2/2
f 114/2/2 115/2/2 118/2/2
f 113/2/2 114/2/2 118/2/2
f 118/2/2 115/2/2 119/2/2
f 120/6/2 121/6/2 123/6/2
f 123/6/2 121/6/2 124/6/2
f 122/1/2 123/1/2 126/1/2
f 124/1/2 125/1/2 126/1/2
f 123/1/2 124/1/2 126/1/2
f 126/1/2 125/1/2 127/1/2
f 122/1/2 126/1/2 128/1/2
f 127/1/2 125/1/2 129/1/2
f 122/1/2 128/1/2 130/1/2
f 128/1/2 129/1/2 130/1/2
f 130/1/2 129/1/2 131/1/2
f 131/1/2 129/1/2 132/1/2
f 129/1/2 125/1/2 133/1/2
f 132/1/2 129/1/2 133/1/2
f 134/1/2 135/1/2 140/1/2
f 140/1/2 135/1/2 141/1/2
f 136/1/2 137/1/2 142/1/2
f 142/1/2 137/1/2 143/1/2
f 138/7/2 139/7/2 144/7/2
f 144/7/2 139/7/2 145/7/2
f 134/1/2 140/1/2 146/1/2
f 146/1/2 140/1/2 147/1/2
f 141/1/2 135/1/2 148/1/2
f 148/1/2 135/1/2 149/1/2
f 131/1/2 132/1/2 150/1/2
f 150/1/2 132/1/2 151/1/2
f 136/1/2 142/1/2 152/1/2
f 152/1/2 142/1/2 153/1/2
f 143/1/2 137/1/2 154/1/2
f 154/1/2 137/1/2 155/1/2
f 156/1/2 157/1/2 158/1/2
f 158/1/2 157/1/2 159/1/2
f 159/1/2 157/1/2 160/1/2
f 160/1/2 157/1/2 161/1/2
f 162/3/2 163/3/2 164/3/2
f 164/3/2 163/3/2 165/3/2
f 166/7/2 167/7/2 170/7/2
f 170/7/2 167/7/2 171/7/2
f 168/7/2 169/7/2 172/7/2
f 172/7/2 169/7/2 173/7/2
f 166/7/2 170/7/2 179/7/2
f 179/7/2 170/7/2 180/7/2
f 174/5/2 175/5/2 181/5/2
f 181/5/2 175/5/2 182/5/2
f 171/7/2 167/7/2 183/7/2
f 183/7/2 167/7/2 184/7/2
f 168/7/2 172/7/2 185/7/2
f 185/7/2 172/7/2 186/7/2
f 176/5/2 177/5/2 187/5/2
f 187/5/2 177/5/2 188/5/2
f 173/7/2 169/7/2 189/7/2
f 189/7/2 169/7/2 190/7/2
f 181/7/2 182/7/2 192/7/2
f 190/7/2 191/7/2 192/7/2
f 189/7/2 190/7/2 192/7/2
f 188/7/2 189/7/2 192/7/2
f 185/7/2 186/7/2 192/7/2
f 186/7/2 187/7/2 192/7/2
f 187/7/2 188/7/2 192/7/2
f 184/7/2 185/7/2 192/7/2
f 183/7/2 184/7/2 192/7/2
f 182/7/2 183/7/2 192/7/2
f 179/7/2 180/7/2 192/7/2
f 180/7/2 181/7/2 192/7/2
f 178/7/2 179/7/2 192/7/2
f 192/7/2 191/7/2 193/7/2
f 194/7/2 195/7/2 196/7/2
f 194/7/2 196/7/2 198/7/2
f 196/7/2 197/7/2 198/7/2
f 198/7/2 197/7/2 199/7/2
f 203/7/3 201/7/3 200/7/3
f 204/1/3 203/1/3 202/1/3
f 205/7/3 201/7/3 203/7/3
f 205/1/3 203/1/3 204/1/3
f 206/7/3 201/7/3 205/7/3
f 207/7/3 201/7/3 206/7/3
f 209/7/3 208/7/3 207/7/3
f 210/7/3 208/7/3 209/7/3
f 216/1/3 212/1/3 211/1/3
f 217/1/3 212/1/3 216/1/3
f 218/1/3 216/1/3 211/1/3
f 220/1/3 218/1/3 211/1/3
f 220/1/3 219/1/3 218/1/3
f 221/1/3 219/1/3 220/1/3
f 222/1/3 219/1/3 221/1/3
f 223/1/3 214/1/3 213/1/3
f 224/1/3 214/1/3 223/1/3
f 225/1/3 214/1/3 224/1/3
f 226/7/3 215/7/3 214/7/3
f 226/1/3 214/1/3 225/1/3
f 227/7/3 215/7/3 226/7/3
f 229/7/3 222/7/3 221/7/3
f 229/7/3 223/7/3 222/7/3
f 230/7/3 223/7/3 229/7/3
f 231/7/3 228/7/3 227/7/3
f 231/7/3 227/7/3 226/7/3
f 231/7/3 226/7/3 225/7/3
f 232/7/3 228/7/3 231/7/3
f 235/2/3 234/2/3 233/2/3
f 236/2/3 234/2/3 235/2/3
f 240/2/3 238/2/3 237/2/3
f 241/2/3 238/2/3 240/2/3
f 243/2/3 240/2/3 239/2/3
f 243/2/3 242/2/3 241/2/3
f 243/2/3 241/2/3 240/2/3
f 244/2/3 242/2/3 243/2/3
f 247/5/3 246/5/3 245/5/3
f 248/5/3 246/5/3 247/5/3
f 251/2/3 250/2/3 249/2/3
f 252/2/3 250/2/3 251/2/3
f 255/2/3 254/2/3 253/2/3
f 256/2/3 254/2/3 255/2/3
f 261/3/3 258/3/3 257/3/3
f 262/3/3 258/3/3 261/3/3
f 263/7/3 260/7/3 259/7/3
f 264/7/3 260/7/3 263/7/3
f 267/6/3 266/6/3 265/6/3
f 268/6/3 266/6/3 267/6/3
f 271/7/3 270/7/3 269/7/3
f 272/7/3 270/7/3 271/7/3
f 275/2/3 274/2/3 273/2/3
f 276/2/3 274/2/3 275/2/3
f 279/2/3 278/2/3 277/2/3
f 280/2/3 278/2/3 279/2/3
f 283/5/3 282/5/3 281/5/3
f 284/5/3 282/5/3 283/5/3
f 287/7/3 286/7/3 285/7/3
f 288/7/3 286/7/3 287/7/3
f 289/7/4 290/7/4 291/7/4
f 291/7/4 290/7/4 292/7/4
f 293/2/4 294/2/4 295/2/4
f 295/2/4 294/2/4 296/2/4
f 297/5/4 298/5/4 299/5/4
f 299/5/4 298/5/4 300/5/4
f 301/2/4 302/2/4 303/2/4
f 303/2/4 302/2/4 304/2/4
f 305/7/4 306/7/4 307/7/4
f 307/7/4 306/7/4 308/7/4
f 309/7/4 310/7/4 311/7/4
f 311/7/4 310/7/4 312/7/4
f 313/6/4 314/6/4 315/6/4
f 315/6/4 314/6/4 316/6/4
f 317/2/4 318/2/4 319/2/4
f 319/2/4 318/2/4 320/2/4
f 321/3/4 322/3/4 325/3/4
f 325/3/4 322/3/4 326/3/4
f 323/7/4 324/7/4 327/7/4
f 327/7/4 324/7/4 328/7/4
f 329/2/4 330/2/4 331/2/4
f 331/2/4 330/2/4 332/2/4
f 333/2/4 334/2/4 336/2/4
f 336/2/4 334/2/4 337/2/4
f 335/2/4 336/2/4 339/2/4
f 337/2/4 338/2/4 339/2/4
f 336/2/4 337/2/4 339/2/4
f 339/2/4 338/2/4 340/2/4
f 341/5/4 342/5/4 343/5/4
f 343/5/4 342/5/4 344/5/4
f 345/7/4 346/7/4 349/7/4
f 349/7/4 346/7/4 350/7/4
f 347/2/4 348/2/4 351/2/4
f 351/2/4 348/2/4 352/2/4
f 355/1/4 356/1/4 357/1/4
f 353/1/4 354/1/4 359/1/4
f 359/1/4 354/1/4 360/1/4
f 353/1/4 359/1/4 361/1/4
f 353/1/4 361/1/4 363/1/4
f 361/1/4 362/1/4 363/1/4
f 363/1/4 362/1/4 364/1/4
f 364/1/4 362/1/4 365/1/4
f 355/1/4 357/1/4 366/1/4
f 357/7/4 358/7/4 367/7/4
f 366/1/4 357/1/4 367/1/4
f 367/7/4 358/7/4 368/7/4
f 364/7/4 365/7/4 370/7/4
f 370/7/4 365/7/4 371/7/4
f 368/7/4 369/7/4 372/7/4
f 367/7/4 368/7/4 372/7/4
f 372/7/4 369/7/4 373/7/4
f 374/7/4 375/7/4 377/7/4
f 376/1/4 377/1/4 378/1/4
f 377/7/4 375/7/4 379/7/4
f 378/1/4 377/1/4 379/1/4
f 379/7/4 375/7/4 380/7/4
f 380/7/4 375/7/4 381/7/4
f 384/2/5 383/2/5 382/2/5
f 385/2/5 383/2/5 384/2/5
f 388/2/5 387/2/5 386/2/5
f 389/2/5 387/2/5 388/2/5
f 392/2/5 391/2/5 390/2/5
f 393/2/5 391/2/5 392/2/5
f 396/2/5 395/2/5 394/2/5
f 397/2/5 395/2/5 396/2/5
f 400/2/5 399/2/5 398/2/5
f 401/2/5 399/2/5 400/2/5
f 404/6/5 403/6/5 402/6/5
f 405/6/5 403/6/5 404/6/5
f 406/2/5 400/2/5 398/2/5
f 408/2/5 406/2/5 398/2/5
f 408/2/5 407/2/5 406/2/5
f 409/2/5 407/2/5 408/2/5
f 412/1/5 411/1/5 410/1/5
f 413/1/5 411/1/5 412/1/5
f 414/1/5 411/1/5 413/1/5
f 415/1/5 411/1/5 414/1/5
f 418/1/5 412/1/5 410/1/5
f 419/1/5 417/1/5 416/1/5
f 420/1/5 418/1/5 410/1/5
f 420/1/5 419/1/5 418/1/5
f 421/1/5 417/1/5 419/1/5
f 421/1/5 419/1/5 420/1/5
f 424/3/5 423/3/5 422/3/5
f 425/3/5 423/3/5 424/3/5
f 428/1/5 427/1/5 426/1/5
f 429/1/5 427/1/5 428/1/5
f 432/7/5 431/7/5 430/7/5
f 433/7/5 431/7/5 432/7/5
f 436/7/5 435/7/5 434/7/5
f 437/7/5 435/7/5 436/7/5
f 440/1/5 439/1/5 438/1/5
f 441/1/5 439/1/5 440/1/5
f 446/7/5 443/7/5 442/7/5
f 447/7/5 443/7/5 446/7/5
f 448/7/5 445/7/5 444/7/5
f 449/7/5 445/7/5 448/7/5
f 452/5/5 451/5/5 450/5/5
f 453/5/5 451/5/5 452/5/5
f 456/5/5 455/5/5 454/5/5
f 457/5/5 455/5/5 456/5/5
f 460/7/5 459/7/5 458/7/5
f 461/7/5 459/7/5 460/7/5
f 464/7/5 463/7/5 462/7/5
f 465/7/5 463/7/5 464/7/5
f 468/7/5 467/7/5 466/7/5
f 469/7/5 467/7/5 468/7/5
f 472/7/5 471/7/5 470/7/5
f 473/7/5 471/7/5 472/7/5
f 476/7/5 475/7/5 474/7/5
f 477/7/5 475/7/5 476/7/5
f 480/7/5 479/7/5 478/7/5
f 481/7/5 479/7/5 480/7/5
f 487/7/5 483/7/5 482/7/5
f 488/7/5 483/7/5 487/7/5
f 489/7/5 486/7/5 485/7/5
f 489/7/5 485/7/5 484/7/5
f 490/7/5 486/7/5 489/7/5
f 493/7/5 492/7/5 491/7/5
f 494/7/5 492/7/5 493/7/5
f 497/7/5 496/7/5 495/7/5
f 498/7/5 496/7/5 497/7/5
f 499/2/6 500/2/6 501/2/6
f 501/2/6 500/2/6 502/2/6
f 503/2/6 504/2/6 507/2/6
f 504/2/6 505/2/6 507/2/6
f 507/2/6 505/2/6 508/2/6
f 508/2/6 505/2/6 509/2/6
f 506/2/6 507/2/6 510/2/6
f 507/2/6 508/2/6 510/2/6
f 510/2/6 508/2/6 511/2/6
f 511/2/6 508/2/6 512/2/6
f 512/2/6 513/2/6 514/2/6
f 511/2/6 512/2/6 514/2/6
f 514/2/6 513/2/6 515/2/6
f 515/2/6 513/2/6 516/2/6
f 517/2/6 518/2/6 519/2/6
f 519/2/6 518/2/6 520/2/6
f 521/2/6 522/2/6 523/2/6
f 523/2/6 522/2/6 524/2/6
f 525/3/6 526/3/6 527/3/6
f 527/3/6 526/3/6 528/3/6
f 529/7/6 530/7/6 531/7/6
f 531/7/6 530/7/6 532/7/6
f 533/7/6 534/7/6 535/7/6
f 535/7/6 534/7/6 536/7/6
f 537/7/6 538/7/6 539/7/6
f 539/7/6 538/7/6 540/7/6
f 541/7/6 542/7/6 543/7/6
f 543/7/6 542/7/6 545/7/6
f 544/7/6 545/7/6 546/7/6
f 545/7/6 542/7/6 547/7/6
f 546/7/6 545/7/6 547/7/6
f 548/1/6 549/1/6 550/1/6
f 550/1/6 549/1/6 551/1/6
f 552/7/6 553/7/6 554/7/6
f 554/7/6 553/7/6 555/7/6
f 555/7/6 553/7/6 556/7/6
f 556/7/6 553/7/6 557/7/6
f 558/7/6 559/7/6 560/7/6
f 560/7/6 559/7/6 561/7/6
