# MagicaVoxel @ Ephtracy

# group
o 

# material
mtllib uclaFlag3.mtl
usemtl palette

# normals
vn -1 0 0
vn 1 0 0
vn 0 0 1
vn 0 0 -1
vn 0 -1 0
vn 0 1 0

# texcoords
vt 0.822266 0.5
vt 0.923828 0.5

# verts
v 0.2 4.1 -1.3
v 0.2 4.1 -1.8
v 0.2 4.1 -2.4
v 0.2 4.1 -2.9
v 0.2 4.1 -3.5
v 0.2 4.1 -4
v 0.2 4.1 -4.6
v 0.2 4.1 -4.7
v 0.2 4.1 -5
v 0.2 4.1 -5.1
v 0.2 4.2 -1.4
v 0.2 4.2 -1.7
v 0.2 4.2 -2.5
v 0.2 4.2 -2.9
v 0.2 4.2 -3.6
v 0.2 4.2 -4
v 0.2 4.3 -4.7
v 0.2 4.3 -5
v 0.2 4.4 -4.7
v 0.2 4.4 -5
v 0.2 4.5 -4.6
v 0.2 4.5 -4.7
v 0.2 4.5 -4.8
v 0.2 4.5 -4.9
v 0.2 4.5 -5
v 0.2 4.5 -5.1
v 0.2 4.6 -2.5
v 0.2 4.6 -2.9
v 0.2 4.6 -4.7
v 0.2 4.6 -4.8
v 0.2 4.6 -4.9
v 0.2 4.6 -5
v 0.2 4.7 -1.3
v 0.2 4.7 -1.4
v 0.2 4.7 -1.7
v 0.2 4.7 -1.8
v 0.2 4.7 -2.4
v 0.2 4.7 -2.9
v 0.2 4.7 -3.5
v 0.2 4.7 -3.6
v 0.2 4.7 -4.8
v 0.2 4.7 -4.9
v 0.3 4.1 -1.3
v 0.3 4.1 -1.8
v 0.3 4.1 -2.4
v 0.3 4.1 -2.9
v 0.3 4.1 -3.5
v 0.3 4.1 -4
v 0.3 4.1 -4.6
v 0.3 4.1 -4.7
v 0.3 4.1 -5
v 0.3 4.1 -5.1
v 0.3 4.2 -1.4
v 0.3 4.2 -1.7
v 0.3 4.2 -2.5
v 0.3 4.2 -2.9
v 0.3 4.2 -3.6
v 0.3 4.2 -4
v 0.3 4.3 -4.7
v 0.3 4.3 -5
v 0.3 4.4 -4.7
v 0.3 4.4 -5
v 0.3 4.5 -4.6
v 0.3 4.5 -4.7
v 0.3 4.5 -4.8
v 0.3 4.5 -4.9
v 0.3 4.5 -5
v 0.3 4.5 -5.1
v 0.3 4.6 -2.5
v 0.3 4.6 -2.9
v 0.3 4.6 -4.7
v 0.3 4.6 -4.8
v 0.3 4.6 -4.9
v 0.3 4.6 -5
v 0.3 4.7 -1.3
v 0.3 4.7 -1.4
v 0.3 4.7 -1.7
v 0.3 4.7 -1.8
v 0.3 4.7 -2.4
v 0.3 4.7 -2.9
v 0.3 4.7 -3.5
v 0.3 4.7 -3.6
v 0.3 4.7 -4.8
v 0.3 4.7 -4.9
v 0.2 4.1 -1.3
v 0.2 4.7 -1.3
v 0.3 4.1 -1.3
v 0.3 4.7 -1.3
v 0.2 4.2 -1.7
v 0.2 4.7 -1.7
v 0.3 4.2 -1.7
v 0.3 4.7 -1.7
v 0.2 4.1 -2.4
v 0.2 4.7 -2.4
v 0.3 4.1 -2.4
v 0.3 4.7 -2.4
v 0.2 4.1 -3.5
v 0.2 4.7 -3.5
v 0.3 4.1 -3.5
v 0.3 4.7 -3.5
v 0.2 4.1 -4.6
v 0.2 4.5 -4.6
v 0.3 4.1 -4.6
v 0.3 4.5 -4.6
v 0.2 4.5 -4.7
v 0.2 4.6 -4.7
v 0.3 4.5 -4.7
v 0.3 4.6 -4.7
v 0.2 4.6 -4.8
v 0.2 4.7 -4.8
v 0.3 4.6 -4.8
v 0.3 4.7 -4.8
v 0.2 4.5 -4.9
v 0.2 4.6 -4.9
v 0.3 4.5 -4.9
v 0.3 4.6 -4.9
v 0.2 4.1 -5
v 0.2 4.3 -5
v 0.2 4.4 -5
v 0.2 4.5 -5
v 0.3 4.1 -5
v 0.3 4.3 -5
v 0.3 4.4 -5
v 0.3 4.5 -5
v 0.2 4.2 -1.4
v 0.2 4.7 -1.4
v 0.3 4.2 -1.4
v 0.3 4.7 -1.4
v 0.2 4.1 -1.8
v 0.2 4.7 -1.8
v 0.3 4.1 -1.8
v 0.3 4.7 -1.8
v 0.2 4.2 -2.5
v 0.2 4.6 -2.5
v 0.3 4.2 -2.5
v 0.3 4.6 -2.5
v 0.2 4.1 -2.9
v 0.2 4.2 -2.9
v 0.2 4.6 -2.9
v 0.2 4.7 -2.9
v 0.3 4.1 -2.9
v 0.3 4.2 -2.9
v 0.3 4.6 -2.9
v 0.3 4.7 -2.9
v 0.2 4.2 -3.6
v 0.2 4.7 -3.6
v 0.3 4.2 -3.6
v 0.3 4.7 -3.6
v 0.2 4.1 -4
v 0.2 4.2 -4
v 0.3 4.1 -4
v 0.3 4.2 -4
v 0.2 4.1 -4.7
v 0.2 4.3 -4.7
v 0.2 4.4 -4.7
v 0.2 4.5 -4.7
v 0.3 4.1 -4.7
v 0.3 4.3 -4.7
v 0.3 4.4 -4.7
v 0.3 4.5 -4.7
v 0.2 4.5 -4.8
v 0.2 4.6 -4.8
v 0.3 4.5 -4.8
v 0.3 4.6 -4.8
v 0.2 4.6 -4.9
v 0.2 4.7 -4.9
v 0.3 4.6 -4.9
v 0.3 4.7 -4.9
v 0.2 4.5 -5
v 0.2 4.6 -5
v 0.3 4.5 -5
v 0.3 4.6 -5
v 0.2 4.1 -5.1
v 0.2 4.5 -5.1
v 0.3 4.1 -5.1
v 0.3 4.5 -5.1
v 0.2 4.1 -1.3
v 0.3 4.1 -1.3
v 0.2 4.1 -1.8
v 0.3 4.1 -1.8
v 0.2 4.1 -2.4
v 0.3 4.1 -2.4
v 0.2 4.1 -2.9
v 0.3 4.1 -2.9
v 0.2 4.1 -3.5
v 0.3 4.1 -3.5
v 0.2 4.1 -4
v 0.3 4.1 -4
v 0.2 4.1 -4.6
v 0.3 4.1 -4.6
v 0.2 4.1 -4.7
v 0.3 4.1 -4.7
v 0.2 4.1 -5
v 0.3 4.1 -5
v 0.2 4.1 -5.1
v 0.3 4.1 -5.1
v 0.2 4.3 -4.7
v 0.3 4.3 -4.7
v 0.2 4.3 -5
v 0.3 4.3 -5
v 0.2 4.5 -4.7
v 0.3 4.5 -4.7
v 0.2 4.5 -4.8
v 0.3 4.5 -4.8
v 0.2 4.5 -4.9
v 0.3 4.5 -4.9
v 0.2 4.5 -5
v 0.3 4.5 -5
v 0.2 4.6 -2.5
v 0.3 4.6 -2.5
v 0.2 4.6 -2.9
v 0.3 4.6 -2.9
v 0.2 4.6 -4.8
v 0.3 4.6 -4.8
v 0.2 4.6 -4.9
v 0.3 4.6 -4.9
v 0.2 4.2 -1.4
v 0.3 4.2 -1.4
v 0.2 4.2 -1.7
v 0.3 4.2 -1.7
v 0.2 4.2 -2.5
v 0.3 4.2 -2.5
v 0.2 4.2 -2.9
v 0.3 4.2 -2.9
v 0.2 4.2 -3.6
v 0.3 4.2 -3.6
v 0.2 4.2 -4
v 0.3 4.2 -4
v 0.2 4.4 -4.7
v 0.3 4.4 -4.7
v 0.2 4.4 -5
v 0.3 4.4 -5
v 0.2 4.5 -4.6
v 0.3 4.5 -4.6
v 0.2 4.5 -4.7
v 0.3 4.5 -4.7
v 0.2 4.5 -5
v 0.3 4.5 -5
v 0.2 4.5 -5.1
v 0.3 4.5 -5.1
v 0.2 4.6 -4.7
v 0.3 4.6 -4.7
v 0.2 4.6 -4.8
v 0.3 4.6 -4.8
v 0.2 4.6 -4.9
v 0.3 4.6 -4.9
v 0.2 4.6 -5
v 0.3 4.6 -5
v 0.2 4.7 -1.3
v 0.3 4.7 -1.3
v 0.2 4.7 -1.4
v 0.3 4.7 -1.4
v 0.2 4.7 -1.7
v 0.3 4.7 -1.7
v 0.2 4.7 -1.8
v 0.3 4.7 -1.8
v 0.2 4.7 -2.4
v 0.3 4.7 -2.4
v 0.2 4.7 -2.9
v 0.3 4.7 -2.9
v 0.2 4.7 -3.5
v 0.3 4.7 -3.5
v 0.2 4.7 -3.6
v 0.3 4.7 -3.6
v 0.2 4.7 -4.8
v 0.3 4.7 -4.8
v 0.2 4.7 -4.9
v 0.3 4.7 -4.9

# faces
f 11/1/1 2/1/1 1/1/1
f 12/1/1 2/1/1 11/1/1
f 13/2/1 4/2/1 3/2/1
f 14/2/1 4/2/1 13/2/1
f 15/2/1 6/2/1 5/2/1
f 16/2/1 6/2/1 15/2/1
f 17/2/1 8/2/1 7/2/1
f 18/2/1 10/2/1 9/2/1
f 19/2/1 17/2/1 7/2/1
f 19/2/1 18/2/1 17/2/1
f 20/2/1 10/2/1 18/2/1
f 20/2/1 18/2/1 19/2/1
f 21/2/1 19/2/1 7/2/1
f 22/2/1 19/2/1 21/2/1
f 25/2/1 10/2/1 20/2/1
f 26/2/1 10/2/1 25/2/1
f 27/2/1 13/2/1 3/2/1
f 29/2/1 23/2/1 22/2/1
f 30/2/1 23/2/1 29/2/1
f 31/2/1 25/2/1 24/2/1
f 32/2/1 25/2/1 31/2/1
f 33/1/1 11/1/1 1/1/1
f 34/1/1 11/1/1 33/1/1
f 35/1/1 2/1/1 12/1/1
f 36/1/1 2/1/1 35/1/1
f 37/2/1 28/2/1 27/2/1
f 37/2/1 27/2/1 3/2/1
f 38/2/1 28/2/1 37/2/1
f 39/2/1 15/2/1 5/2/1
f 40/2/1 15/2/1 39/2/1
f 41/2/1 31/2/1 30/2/1
f 42/2/1 31/2/1 41/2/1
f 43/1/2 44/1/2 53/1/2
f 53/1/2 44/1/2 54/1/2
f 45/2/2 46/2/2 55/2/2
f 55/2/2 46/2/2 56/2/2
f 47/2/2 48/2/2 57/2/2
f 57/2/2 48/2/2 58/2/2
f 49/2/2 50/2/2 59/2/2
f 51/2/2 52/2/2 60/2/2
f 49/2/2 59/2/2 61/2/2
f 59/2/2 60/2/2 61/2/2
f 60/2/2 52/2/2 62/2/2
f 61/2/2 60/2/2 62/2/2
f 49/2/2 61/2/2 63/2/2
f 63/2/2 61/2/2 64/2/2
f 62/2/2 52/2/2 67/2/2
f 67/2/2 52/2/2 68/2/2
f 45/2/2 55/2/2 69/2/2
f 64/2/2 65/2/2 71/2/2
f 71/2/2 65/2/2 72/2/2
f 66/2/2 67/2/2 73/2/2
f 73/2/2 67/2/2 74/2/2
f 43/1/2 53/1/2 75/1/2
f 75/1/2 53/1/2 76/1/2
f 54/1/2 44/1/2 77/1/2
f 77/1/2 44/1/2 78/1/2
f 69/2/2 70/2/2 79/2/2
f 45/2/2 69/2/2 79/2/2
f 79/2/2 70/2/2 80/2/2
f 47/2/2 57/2/2 81/2/2
f 81/2/2 57/2/2 82/2/2
f 72/2/2 73/2/2 83/2/2
f 83/2/2 73/2/2 84/2/2
f 87/1/3 86/1/3 85/1/3
f 88/1/3 86/1/3 87/1/3
f 91/1/3 90/1/3 89/1/3
f 92/1/3 90/1/3 91/1/3
f 95/2/3 94/2/3 93/2/3
f 96/2/3 94/2/3 95/2/3
f 99/2/3 98/2/3 97/2/3
f 100/2/3 98/2/3 99/2/3
f 103/2/3 102/2/3 101/2/3
f 104/2/3 102/2/3 103/2/3
f 107/2/3 106/2/3 105/2/3
f 108/2/3 106/2/3 107/2/3
f 111/2/3 110/2/3 109/2/3
f 112/2/3 110/2/3 111/2/3
f 115/2/3 114/2/3 113/2/3
f 116/2/3 114/2/3 115/2/3
f 121/2/3 118/2/3 117/2/3
f 122/2/3 118/2/3 121/2/3
f 123/2/3 120/2/3 119/2/3
f 124/2/3 120/2/3 123/2/3
f 125/1/4 126/1/4 127/1/4
f 127/1/4 126/1/4 128/1/4
f 129/1/4 130/1/4 131/1/4
f 131/1/4 130/1/4 132/1/4
f 133/2/4 134/2/4 135/2/4
f 135/2/4 134/2/4 136/2/4
f 137/2/4 138/2/4 141/2/4
f 141/2/4 138/2/4 142/2/4
f 139/2/4 140/2/4 143/2/4
f 143/2/4 140/2/4 144/2/4
f 145/2/4 146/2/4 147/2/4
f 147/2/4 146/2/4 148/2/4
f 149/2/4 150/2/4 151/2/4
f 151/2/4 150/2/4 152/2/4
f 153/2/4 154/2/4 157/2/4
f 157/2/4 154/2/4 158/2/4
f 155/2/4 156/2/4 159/2/4
f 159/2/4 156/2/4 160/2/4
f 161/2/4 162/2/4 163/2/4
f 163/2/4 162/2/4 164/2/4
f 165/2/4 166/2/4 167/2/4
f 167/2/4 166/2/4 168/2/4
f 169/2/4 170/2/4 171/2/4
f 171/2/4 170/2/4 172/2/4
f 173/2/4 174/2/4 175/2/4
f 175/2/4 174/2/4 176/2/4
f 179/1/5 178/1/5 177/1/5
f 180/1/5 178/1/5 179/1/5
f 183/2/5 182/2/5 181/2/5
f 184/2/5 182/2/5 183/2/5
f 187/2/5 186/2/5 185/2/5
f 188/2/5 186/2/5 187/2/5
f 191/2/5 190/2/5 189/2/5
f 192/2/5 190/2/5 191/2/5
f 195/2/5 194/2/5 193/2/5
f 196/2/5 194/2/5 195/2/5
f 199/2/5 198/2/5 197/2/5
f 200/2/5 198/2/5 199/2/5
f 203/2/5 202/2/5 201/2/5
f 204/2/5 202/2/5 203/2/5
f 207/2/5 206/2/5 205/2/5
f 208/2/5 206/2/5 207/2/5
f 211/2/5 210/2/5 209/2/5
f 212/2/5 210/2/5 211/2/5
f 215/2/5 214/2/5 213/2/5
f 216/2/5 214/2/5 215/2/5
f 217/1/6 218/1/6 219/1/6
f 219/1/6 218/1/6 220/1/6
f 221/2/6 222/2/6 223/2/6
f 223/2/6 222/2/6 224/2/6
f 225/2/6 226/2/6 227/2/6
f 227/2/6 226/2/6 228/2/6
f 229/2/6 230/2/6 231/2/6
f 231/2/6 230/2/6 232/2/6
f 233/2/6 234/2/6 235/2/6
f 235/2/6 234/2/6 236/2/6
f 237/2/6 238/2/6 239/2/6
f 239/2/6 238/2/6 240/2/6
f 241/2/6 242/2/6 243/2/6
f 243/2/6 242/2/6 244/2/6
f 245/2/6 246/2/6 247/2/6
f 247/2/6 246/2/6 248/2/6
f 249/1/6 250/1/6 251/1/6
f 251/1/6 250/1/6 252/1/6
f 253/1/6 254/1/6 255/1/6
f 255/1/6 254/1/6 256/1/6
f 257/2/6 258/2/6 259/2/6
f 259/2/6 258/2/6 260/2/6
f 261/2/6 262/2/6 263/2/6
f 263/2/6 262/2/6 264/2/6
f 265/2/6 266/2/6 267/2/6
f 267/2/6 266/2/6 268/2/6
